<svg width="170" height="81" viewBox="0 0 170 81" fill="none" xmlns="http://www.w3.org/2000/svg">
<g clip-path="url(#clip0_6_3)">
<path d="M36.66 0.0300293V52.69H31.29V47.24C29.76 49.35 27.89 50.99 25.68 52.18C23.47 53.37 21.05 53.96 18.41 53.96C14.88 53.96 11.72 53.12 8.93 51.43C6.14 49.75 3.95 47.4 2.37 44.4C0.79 41.4 0 37.98 0 34.13C0 30.28 0.78 26.95 2.33 23.98C3.88 21 6.04 18.67 8.81 16.99C11.57 15.3 14.72 14.46 18.25 14.46C20.94 14.46 23.4 15.05 25.64 16.24C27.88 17.43 29.76 19.1 31.29 21.26V0.0300293H36.66ZM25.01 47.16C26.99 45.9 28.53 44.13 29.63 41.87C30.74 39.61 31.29 37.05 31.29 34.21C31.29 31.37 30.74 28.81 29.63 26.55C28.52 24.29 26.98 22.52 25.01 21.26C23.03 20 20.78 19.36 18.26 19.36C15.74 19.36 13.57 19.99 11.62 21.26C9.67 22.52 8.14 24.28 7.04 26.51C5.93 28.75 5.38 31.29 5.38 34.13C5.38 36.97 5.93 39.61 7.04 41.87C8.15 44.14 9.67 45.9 11.62 47.16C13.57 48.42 15.78 49.06 18.26 49.06C20.74 49.06 23.04 48.43 25.01 47.16Z" fill="#1D1D1B"/>
<path d="M45.2 35.4701V31.05H52.0099V35.4701H45.2Z" fill="#1D1D1B"/>
<path d="M56.9399 49.08H59.1499C60.9899 49.08 62.5099 48.45 63.6899 47.18C64.8699 45.92 65.4699 44.28 65.4699 42.28V14.74H70.8399V42.29C70.8399 45.71 69.7499 48.52 67.5599 50.7C65.3699 52.89 62.5699 53.98 59.1499 53.98H56.9399V49.08ZM65.1199 7.29003C64.2999 6.45003 63.8999 5.42003 63.8999 4.21003C63.8999 3.00003 64.3099 2.06003 65.1199 1.25003C65.9399 0.430029 66.9499 0.0300293 68.1599 0.0300293C69.3699 0.0300293 70.3199 0.440029 71.1599 1.25003C71.9999 2.07003 72.4199 3.08003 72.4199 4.29003C72.4199 5.50003 71.9999 6.45003 71.1599 7.29003C70.3199 8.13003 69.3199 8.55003 68.1599 8.55003C66.9999 8.55003 65.9299 8.13003 65.1199 7.29003Z" fill="#1D1D1B"/>
<path d="M112.08 30.34V52.69H106.71V47.24C105.18 49.35 103.31 50.99 101.1 52.18C98.8899 53.37 96.4599 53.96 93.8299 53.96C90.2999 53.96 87.1399 53.12 84.3499 51.43C81.5599 49.75 79.3699 47.4 77.7899 44.4C76.2099 41.4 75.4199 37.98 75.4199 34.13C75.4199 30.28 76.1999 26.95 77.7499 23.98C79.2999 21 81.4599 18.67 84.2299 16.99C86.9899 15.3 90.1399 14.46 93.6699 14.46C103.84 14.46 109.19 21.2 110.9 25.03C111.96 27.41 112.08 30.35 112.08 30.35V30.34ZM100.43 47.16C102.4 45.9 103.95 44.13 105.05 41.87C106.16 39.61 106.71 37.05 106.71 34.21C106.71 31.37 106.16 28.81 105.05 26.55C103.94 24.29 102.4 22.52 100.43 21.26C98.4599 20 96.1999 19.36 93.6799 19.36C91.1599 19.36 88.9899 19.99 87.0399 21.26C85.0899 22.52 83.5599 24.28 82.4599 26.51C81.3499 28.75 80.7999 31.29 80.7999 34.13C80.7999 36.97 81.3499 39.61 82.4599 41.87C83.5699 44.14 85.0899 45.9 87.0399 47.16C88.9899 48.42 91.1999 49.06 93.6799 49.06C96.1599 49.06 98.4599 48.43 100.43 47.16Z" fill="#1D1D1B"/>
<path d="M121.6 7.27001C120.78 6.43001 120.38 5.40001 120.38 4.19001C120.38 2.98001 120.79 2.04001 121.6 1.23001C122.42 0.41001 123.43 0.0100098 124.64 0.0100098C125.85 0.0100098 126.8 0.42001 127.64 1.23001C128.48 2.05001 128.9 3.06001 128.9 4.27001C128.9 5.48001 128.48 6.43001 127.64 7.27001C126.8 8.11001 125.8 8.53001 124.64 8.53001C123.48 8.53001 122.41 8.11001 121.6 7.27001ZM121.96 52.69V14.72H127.33V52.69H121.96Z" fill="#1D1D1B"/>
<path d="M161.97 16.04C164.16 17.09 165.89 18.65 167.18 20.7C168.47 22.75 169.12 25.18 169.12 27.97V52.7H163.75V30.34C163.75 23.02 160.48 19.36 153.95 19.36C150.16 19.36 147.31 20.7 145.42 23.39C143.52 26.08 142.58 29.6799 142.58 34.2099V52.7H137.21V15.72H142.58V21.88C143.84 19.51 145.52 17.68 147.6 16.39C149.68 15.1 152.09 14.45 154.83 14.45C157.41 14.45 159.79 14.98 161.98 16.03L161.97 16.04Z" fill="#1D1D1B"/>
<path d="M20.45 60.5399H22.6L17.56 76.0499H15.21L11.43 64.1499L7.35 76.0499H5.1L0 60.5399H2.39L6.37 72.8699L10.41 60.5399H12.6L16.51 72.8099L20.45 60.5399Z" fill="#1D1D1B"/>
<path d="M35.2 61.04C36.33 61.73 37.21 62.66 37.85 63.84C38.49 65.02 38.81 66.34 38.81 67.8C38.81 68.22 38.8 68.54 38.78 68.76H26.02C26.11 70.35 26.63 71.71 27.58 72.84C28.53 73.97 29.82 74.53 31.46 74.53C32.79 74.53 33.88 74.28 34.76 73.78C35.63 73.28 36.33 72.59 36.87 71.71L38.66 72.9C37.93 74.05 36.97 74.95 35.78 75.6C34.59 76.25 33.17 76.58 31.54 76.58C30.04 76.58 28.7 76.23 27.53 75.52C26.36 74.81 25.44 73.83 24.78 72.57C24.12 71.31 23.79 69.89 23.79 68.29C23.79 66.69 24.12 65.27 24.77 64.01C25.42 62.75 26.33 61.77 27.49 61.06C28.65 60.35 29.97 60 31.45 60C32.84 60 34.1 60.34 35.23 61.03L35.2 61.04ZM36.56 66.91C36.34 65.3 35.8 64.09 34.94 63.28C34.08 62.47 32.91 62.07 31.43 62.07C29.95 62.07 28.82 62.53 27.9 63.45C26.98 64.37 26.4 65.52 26.16 66.91H36.57H36.56Z" fill="#1D1D1B"/>
<path d="M53.8499 61.07C55.0099 61.78 55.9199 62.76 56.5699 64C57.2199 65.25 57.5499 66.67 57.5499 68.26C57.5499 69.85 57.2199 71.31 56.5599 72.57C55.8999 73.83 54.9799 74.81 53.8099 75.52C52.6399 76.23 51.3099 76.58 49.8299 76.58C48.7299 76.58 47.7099 76.33 46.7799 75.83C45.8499 75.33 45.0699 74.64 44.4299 73.76V76.05H42.1799V54.96H44.4299V62.86C45.0699 61.95 45.8599 61.25 46.7999 60.75C47.7399 60.25 48.7699 60 49.8999 60C51.3799 60 52.6999 60.35 53.8599 61.06L53.8499 61.07ZM52.6699 73.73C53.4899 73.2 54.1299 72.46 54.5899 71.51C55.0499 70.56 55.2899 69.48 55.2899 68.26C55.2899 67.04 55.0599 66 54.5899 65.06C54.1199 64.12 53.4899 63.39 52.6699 62.86C51.8499 62.33 50.9199 62.06 49.8899 62.06C48.8599 62.06 47.8799 62.33 47.0599 62.86C46.2399 63.39 45.5799 64.13 45.1199 65.08C44.6599 66.03 44.4199 67.1 44.4199 68.3C44.4199 69.5 44.6499 70.57 45.1199 71.52C45.5799 72.47 46.2299 73.21 47.0599 73.74C47.8899 74.27 48.8299 74.54 49.8899 74.54C50.9499 74.54 51.8599 74.27 52.6699 73.74V73.73Z" fill="#1D1D1B"/>
<path d="M82.5399 60.54V76.05H80.2899V73.76C79.6499 74.64 78.8599 75.33 77.9399 75.83C77.0099 76.33 75.9899 76.58 74.8899 76.58C73.4099 76.58 72.0799 76.23 70.9099 75.52C69.7399 74.81 68.8199 73.83 68.1599 72.57C67.4999 71.31 67.1699 69.87 67.1699 68.26C67.1699 66.65 67.4999 65.25 68.1499 64C68.7999 62.75 69.7099 61.77 70.8699 61.07C72.0299 60.36 73.3499 60.01 74.8299 60.01C75.9599 60.01 76.9899 60.26 77.9299 60.76C78.8699 61.26 79.6599 61.96 80.2999 62.87V60.55H82.5499L82.5399 60.54ZM77.6499 73.73C78.4799 73.2 79.1199 72.46 79.5899 71.51C80.0499 70.56 80.2899 69.49 80.2899 68.29C80.2899 67.09 80.0599 66.02 79.5899 65.07C79.1299 64.12 78.4799 63.38 77.6499 62.85C76.8199 62.32 75.8799 62.05 74.8199 62.05C73.7599 62.05 72.8499 62.32 72.0399 62.85C71.2299 63.38 70.5799 64.11 70.1199 65.05C69.6599 65.99 69.4199 67.06 69.4199 68.25C69.4199 69.44 69.6499 70.55 70.1199 71.5C70.5799 72.45 71.2199 73.19 72.0399 73.72C72.8599 74.25 73.7899 74.52 74.8199 74.52C75.8499 74.52 76.8299 74.25 77.6499 73.72V73.73Z" fill="#1D1D1B"/>
<path d="M94.31 80.95V78.89C95.66 78.89 96.76 78.4 97.61 77.43C98.46 76.46 98.89 75.22 98.89 73.72V73.76C98.25 74.64 97.46 75.33 96.54 75.83C95.61 76.33 94.59 76.58 93.49 76.58C92.01 76.58 90.68 76.23 89.51 75.52C88.34 74.81 87.42 73.83 86.76 72.57C86.1 71.31 85.77 69.87 85.77 68.26C85.77 66.65 86.1 65.25 86.75 64C87.4 62.75 88.31 61.77 89.47 61.07C90.63 60.36 91.95 60.01 93.43 60.01C94.56 60.01 95.59 60.26 96.53 60.76C97.47 61.26 98.26 61.96 98.9 62.87V60.55H101.15V73.74C101.15 75.13 100.86 76.37 100.29 77.47C99.71 78.56 98.91 79.42 97.87 80.04C96.83 80.66 95.65 80.97 94.32 80.97M96.26 73.75C97.09 73.22 97.73 72.48 98.2 71.53C98.66 70.58 98.9 69.51 98.9 68.31C98.9 67.11 98.67 66.04 98.2 65.09C97.74 64.14 97.09 63.4 96.26 62.87C95.43 62.34 94.49 62.07 93.43 62.07C92.37 62.07 91.46 62.34 90.65 62.87C89.83 63.4 89.19 64.13 88.73 65.07C88.27 66.01 88.03 67.08 88.03 68.27C88.03 69.46 88.26 70.57 88.73 71.52C89.19 72.47 89.84 73.21 90.65 73.74C91.47 74.27 92.39 74.54 93.43 74.54C94.47 74.54 95.44 74.27 96.26 73.74V73.75Z" fill="#1D1D1B"/>
<path d="M115.78 61.04C116.91 61.73 117.79 62.66 118.43 63.84C119.07 65.02 119.39 66.34 119.39 67.8C119.39 68.22 119.38 68.54 119.36 68.76H106.6C106.69 70.35 107.21 71.71 108.16 72.84C109.11 73.97 110.4 74.53 112.04 74.53C113.37 74.53 114.46 74.28 115.34 73.78C116.21 73.28 116.91 72.59 117.45 71.71L119.24 72.9C118.51 74.05 117.55 74.95 116.36 75.6C115.17 76.25 113.75 76.58 112.12 76.58C110.62 76.58 109.28 76.23 108.11 75.52C106.94 74.81 106.02 73.83 105.36 72.57C104.7 71.31 104.37 69.89 104.37 68.29C104.37 66.69 104.7 65.27 105.35 64.01C106 62.75 106.91 61.77 108.07 61.06C109.23 60.35 110.55 60 112.03 60C113.42 60 114.68 60.34 115.81 61.03L115.78 61.04ZM117.14 66.91C116.92 65.3 116.38 64.09 115.52 63.28C114.66 62.47 113.49 62.07 112.01 62.07C110.53 62.07 109.4 62.53 108.48 63.45C107.56 64.37 106.98 65.52 106.74 66.91H117.15H117.14Z" fill="#1D1D1B"/>
<path d="M133.1 60.6799C134.02 61.1199 134.75 61.7699 135.29 62.6399C135.83 63.4999 136.1 64.5199 136.1 65.6899V76.0699H133.85V66.6899C133.85 63.6199 132.48 62.0799 129.74 62.0799C128.15 62.0799 126.96 62.6399 126.16 63.7699C125.37 64.8999 124.97 66.4099 124.97 68.3099V76.0699H122.72V60.5599H124.97V63.1499C125.5 62.1599 126.2 61.3899 127.08 60.8499C127.95 60.3099 128.96 60.0399 130.11 60.0399C131.19 60.0399 132.19 60.2599 133.11 60.6999L133.1 60.6799Z" fill="#1D1D1B"/>
<path d="M143.23 75.53C142.06 74.82 141.14 73.84 140.48 72.58C139.82 71.32 139.48 69.9 139.48 68.3C139.48 66.7 139.81 65.28 140.46 64.02C141.11 62.76 142.02 61.78 143.19 61.07C144.36 60.36 145.69 60.01 147.17 60.01C148.43 60.01 149.53 60.28 150.47 60.82C151.41 61.36 152.26 62.13 153.04 63.12L151.38 64.41C150.3 62.84 148.89 62.06 147.17 62.06C146.13 62.06 145.2 62.33 144.37 62.86C143.54 63.39 142.9 64.13 142.43 65.08C141.97 66.03 141.73 67.1 141.73 68.3C141.73 69.5 141.96 70.57 142.43 71.52C142.89 72.47 143.54 73.21 144.37 73.74C145.2 74.27 146.13 74.54 147.17 74.54C148.21 74.54 149.1 74.36 149.79 73.99C150.47 73.63 151.09 73.09 151.65 72.38L153.41 73.61C152.68 74.52 151.78 75.24 150.71 75.78C149.64 76.32 148.48 76.59 147.25 76.59C145.75 76.59 144.41 76.24 143.24 75.53H143.23Z" fill="#1D1D1B"/>
<path d="M167 60.5399H169.12L161.4 80.9499H159.15L160.94 76.3499L154.58 60.5399H156.93L162.07 73.3999L167.01 60.5399H167Z" fill="#1D1D1B"/>
</g>
<defs>
<clipPath id="clip0_6_3">
<rect width="169.12" height="80.95" fill="white"/>
</clipPath>
</defs>
</svg>
